# xmcd CD database file
#
# Track frame offsets:
#	150
#	20396
#	38777
#	57485
#	74392
#	89099
#	110156
#	124307
#	135120
#	149585
#
# Disc length: 2231 seconds
#
# Revision: 0
# Processed by: cddbd v1.5.1PL0 Copyright (c) Steve Scherf et al.
# Submitted via: CDex 1.51
#
DISCID=9708b50a
DTITLE=Madeleine Peyroux - 2005 KCRW Morning Becomes Eclectic
DYEAR=2005
DGENRE=Blues
TTITLE0=Madeleine Peyroux - Dance Me To End Of Love
TTITLE1=Madeleine Peyroux - Don't Wait Too Long
TTITLE2=Madeleine Peyroux - Between The Bars
TTITLE3=Madeleine Peyroux - You're Gonna Make Me Lonesome
TTITLE4=Madeleine Peyroux - J'ai Deux Amour
TTITLE5=Madeleine Peyroux - Careless Love
TTITLE6=Madeleine Peyroux - I'll Look Around
TTITLE7=Madeleine Peyroux - Don't Cry Baby
TTITLE8=Madeleine Peyroux - Don´t Wait Too Long
TTITLE9=Madeleine Peyroux - Dance me to the end of love
EXTD=YEAR: 2005
EXTT0=
EXTT1=
EXTT2=
EXTT3=
EXTT4=
EXTT5=
EXTT6=
EXTT7=
EXTT8=
EXTT9=
PLAYORDER=
